<svg xmlns="http://www.w3.org/2000/svg" viewBox="0 0 1000 320" width="100%" height="100%">
  <defs>
    <linearGradient id="skaisBg" x1="0%" y1="0%" x2="100%" y2="100%">
      <stop offset="0%" stop-color="#0B1329"/>
      <stop offset="50%" stop-color="#0D1B3A"/>
      <stop offset="100%" stop-color="#070D1E"/>
    </linearGradient>
    <linearGradient id="skaisAccent" x1="0%" y1="0%" x2="100%" y2="0%">
      <stop offset="0%" stop-color="#38BDF8"/>
      <stop offset="50%" stop-color="#818CF8"/>
      <stop offset="100%" stop-color="#C084FC"/>
    </linearGradient>
    <filter id="skaisGlow" x="-20%" y="-20%" width="140%" height="140%">
      <feGaussianBlur stdDeviation="6" result="blur" />
      <feComposite in="SourceGraphic" in2="blur" operator="over" />
    </filter>
  </defs>

  <!-- Card Frame -->
  <rect width="1000" height="320" rx="16" fill="url(#skaisBg)" stroke="#1E293B" stroke-width="2"/>
  <rect x="0" y="0" width="1000" height="4" rx="2" fill="url(#skaisAccent)"/>

  <!-- Left Soundwave & AI Agent Visual -->
  <g transform="translate(650, 40)">
    <!-- Voice Soundwave Bars -->
    <rect x="0" y="100" width="8" height="40" rx="4" fill="#38BDF8" opacity="0.6"/>
    <rect x="16" y="70" width="8" height="100" rx="4" fill="#38BDF8" filter="url(#skaisGlow)"/>
    <rect x="32" y="40" width="8" height="160" rx="4" fill="#818CF8" filter="url(#skaisGlow)"/>
    <rect x="48" y="80" width="8" height="80" rx="4" fill="#C084FC"/>
    <rect x="64" y="20" width="8" height="200" rx="4" fill="#38BDF8" filter="url(#skaisGlow)"/>
    <rect x="80" y="60" width="8" height="120" rx="4" fill="#818CF8"/>
    <rect x="96" y="90" width="8" height="60" rx="4" fill="#34D399"/>
    <rect x="112" y="50" width="8" height="140" rx="4" fill="#C084FC" filter="url(#skaisGlow)"/>
    <rect x="128" y="80" width="8" height="80" rx="4" fill="#38BDF8"/>
    <rect x="144" y="110" width="8" height="20" rx="4" fill="#818CF8" opacity="0.5"/>

    <!-- Orbit Rings around soundwave -->
    <circle cx="76" cy="120" r="110" fill="none" stroke="#38BDF8" stroke-width="1" stroke-dasharray="4,8" opacity="0.3"/>
    
    <!-- Floating Tech Metrics Badges -->
    <g transform="translate(-40, 180)">
      <rect width="220" height="44" rx="22" fill="#0F172A" stroke="#38BDF8" stroke-width="1.5"/>
      <text x="20" y="27" fill="#38BDF8" font-family="'Segoe UI', sans-serif" font-size="13" font-weight="700">📞 103+ Production Calls</text>
    </g>
  </g>

  <!-- Main Content Area -->
  <g transform="translate(50, 45)">
    <!-- Badge -->
    <rect width="180" height="28" rx="14" fill="#0F172A" stroke="#38BDF8" stroke-width="1"/>
    <text x="14" y="19" fill="#38BDF8" font-family="'Segoe UI', sans-serif" font-size="12" font-weight="700" letter-spacing="1">FEATURED PROJECT 01</text>

    <!-- Title -->
    <text x="0" y="70" fill="#FFFFFF" font-family="'Segoe UI', sans-serif" font-size="34" font-weight="800">SKAIS — Voice AI Restaurant System</text>

    <!-- Subtitle -->
    <text x="0" y="100" fill="#94A3B8" font-family="'Segoe UI', sans-serif" font-size="15" font-weight="500">Autonomous Conversational AI Order &amp; Reservation Platform</text>

    <!-- Highlights Bullet List -->
    <g transform="translate(0, 130)">
      <text x="0" y="0" fill="#E2E8F0" font-family="'Segoe UI', sans-serif" font-size="14">🔹 <tspan font-weight="700" fill="#F8FAFC">Retell AI Voice Agent</tspan> taking live customer phone orders &amp; reservations autonomously</text>
      <text x="0" y="28" fill="#E2E8F0" font-family="'Segoe UI', sans-serif" font-size="14">🔹 <tspan font-weight="700" fill="#F8FAFC">RAG Knowledge Base</tspan> answering restaurant hours, policies, &amp; menu items accurately</text>
      <text x="0" y="56" fill="#E2E8F0" font-family="'Segoe UI', sans-serif" font-size="14">🔹 <tspan font-weight="700" fill="#F8FAFC">FastAPI + Supabase + Twilio SDK</tspan> for instant SMS order confirmations &amp; prep-time logic</text>
      <text x="0" y="84" fill="#E2E8F0" font-family="'Segoe UI', sans-serif" font-size="14">🔹 <tspan font-weight="700" fill="#F8FAFC">50%+ Cost Reduction</tspan> ($1,000–$1,500/mo software cost vs $2,000–$3,000/mo human operator)</text>
    </g>
  </g>

  <!-- Stack Pills Row -->
  <g transform="translate(50, 272)">
    <text x="0" y="16" fill="#64748B" font-family="'Segoe UI', sans-serif" font-size="12" font-weight="700" letter-spacing="1">TECH STACK:</text>
    
    <g transform="translate(85, 0)">
      <rect width="70" height="24" rx="6" fill="#1E293B"/><text x="10" y="16" fill="#38BDF8" font-family="sans-serif" font-size="11" font-weight="600">Python</text>
    </g>
    <g transform="translate(163, 0)">
      <rect width="70" height="24" rx="6" fill="#1E293B"/><text x="10" y="16" fill="#818CF8" font-family="sans-serif" font-size="11" font-weight="600">FastAPI</text>
    </g>
    <g transform="translate(241, 0)">
      <rect width="95" height="24" rx="6" fill="#1E293B"/><text x="10" y="16" fill="#C084FC" font-family="sans-serif" font-size="11" font-weight="600">Retell AI SDK</text>
    </g>
    <g transform="translate(344, 0)">
      <rect width="70" height="24" rx="6" fill="#1E293B"/><text x="10" y="16" fill="#34D399" font-family="sans-serif" font-size="11" font-weight="600">LangChain</text>
    </g>
    <g transform="translate(422, 0)">
      <rect width="75" height="24" rx="6" fill="#1E293B"/><text x="10" y="16" fill="#F472B6" font-family="sans-serif" font-size="11" font-weight="600">Supabase</text>
    </g>
    <g transform="translate(505, 0)">
      <rect width="70" height="24" rx="6" fill="#1E293B"/><text x="10" y="16" fill="#FBBF24" font-family="sans-serif" font-size="11" font-weight="600">Twilio SDK</text>
    </g>
    <g transform="translate(583, 0)">
      <rect width="65" height="24" rx="6" fill="#1E293B"/><text x="10" y="16" fill="#60A5FA" font-family="sans-serif" font-size="11" font-weight="600">Next.js</text>
    </g>
  </g>
</svg>
